# xmcd
#
# Track frame offsets:
#	150
#	13096
#	22850
#	38458
#	50011
#	65686
#	77276
#	87460
#	96752
#	107223
#	117197
#	127939
#	138929
#	150354
#	161983
#	171960
#	186024
#	199096
#	212237
#	227092
#
# Disc length: 3174 seconds
#
# Revision: 1
# Processed by: cddbd v1.5.2PL0 Copyright (c) Steve Scherf et al.
# Submitted via: audiograbber 1.83.01
#
DISCID=030c6414
DTITLE=Zillertaler Schürzenjäger - Legenden der Volksmusik - CD1
DYEAR=1900
DGENRE=Volkstümliche Musik
TTITLE0=Ohne Musig geht nix
TTITLE1=Zeit für Fröhlichkeit
TTITLE2=Zillertaler Hochzeitsmarsch (Tramplan)
TTITLE3=Die Berge, die sind mein Zuhaus
TTITLE4=Grüne Tannen
TTITLE5=Heut will i lustig sein
TTITLE6=Hegl-Boarischer
TTITLE7=Ohne jodeln geht die Zenzi nicht gern schlafen
TTITLE8=Postillionpolka
TTITLE9=Wenn in Tirol die roten Rosen blüh'n
TTITLE10=I komm heut Nacht auf a Bussl zu dir
TTITLE11=Es blüht ein Edelweiss
TTITLE12=Ein kleiner Blumenstrauss
TTITLE13=s' laterndl
TTITLE14=Wastl's Boarischer
TTITLE15=Mei liabes Muaterl
TTITLE16=Wie der Blitz
TTITLE17=Zauberwelt, du meine Berge
TTITLE18=Der Jagertoni
TTITLE19=Bayrischer Jodler
EXTD=
EXTT0=
EXTT1=
EXTT2=
EXTT3=
EXTT4=
EXTT5=
EXTT6=
EXTT7=
EXTT8=
EXTT9=
EXTT10=
EXTT11=
EXTT12=
EXTT13=
EXTT14=
EXTT15=
EXTT16=
EXTT17=
EXTT18=
EXTT19=
PLAYORDER=
